:SAMPLES-PER-SECOND 30
:FRAME-RANGE 1-1086
:FULLY-SPECIFIED
:DEGREES
1019
root  29.2269 38.9134 -101.224 -1.7047 22.7516 -3.11937
RightUpLeg  -13.1084 -4.70306 5.1078
RightLeg  23.2927 -13.0403 -4.28709
RightFoot  -10.1894 -0.0709421 0.190669
RightToes  -5.8209e-011 0 -3.6325e-017
Spine  9.01529 -1.2155 11.5725
Spine1  -1.60158 0.150711 1.39465
HEad  -18.1527 -3.99934 1.54371
LeftShoulder1  1.54804 -0.875421 -29.2797
LeftArm  29.9509 3.81793 -41.3875
LeftForeArm  -4.98119 -17.5704 -10.184
LeftHand  0.339352 -3.06735 -4.43637
RightShoulder  10.1103 14.9662 47.9063
RightArm  9.09501 5.38383 16.8497
RightForeArm  17.7733 2.45762 16.4087
RightHand  0.30343 4.46953 3.28238
LeftUpLeg  -15.2765 10.2543 7.10081
LeftLeg  60.6015 -2.00855 -3.30905
LeftFoot  1.53117 1.27377 -11.3463
LeftToes  5.72949e-011 5.22586e-011 2.45399e-011
1020
root  29.6326 39.0901 -100.152 -1.32913 22.3651 -2.01456
RightUpLeg  -10.5098 -5.21068 3.82814
RightLeg  22.0965 -12.1742 -3.50969
RightFoot  -11.5569 -0.077362 0.48108
RightToes  -5.8209e-011 0 -3.6325e-017
Spine  8.7504 -0.707834 11.1214
Spine1  -1.76151 0.618497 0.413427
HEad  -17.4655 -4.1392 1.24171
LeftShoulder1  1.47108 -0.647089 -29.3691
LeftArm  29.7786 4.68181 -39.7868
LeftForeArm  -5.90571 -18.5047 -9.25841
LeftHand  0.353105 -3.42559 -4.40984
RightShoulder  10.3987 15.6072 47.6084
RightArm  10.4514 6.11957 17.3295
RightForeArm  16.1609 4.38403 15.9869
RightHand  0.29571 4.52377 3.17061
LeftUpLeg  -18.5182 11.0594 5.87175
LeftLeg  57.4968 -2.53741 -3.78872
LeftFoot  -0.780644 0.885458 -9.51548
LeftToes  5.72949e-011 5.22586e-011 2.45399e-011
1021
root  30.0006 39.3291 -99.0987 -0.864624 22.046 -0.850815
RightUpLeg  -7.5166 -5.4323 2.52457
RightLeg  19.8696 -11.6577 -2.78465
RightFoot  -12.2494 -0.0769652 0.755538
RightToes  -5.8209e-011 0 -3.6325e-017
Spine  8.94189 -0.271579 10.0021
Spine1  -2.69939 0.865662 -0.412778
HEad  -16.2906 -4.02865 0.786852
LeftShoulder1  1.47428 -0.636959 -29.5358
LeftArm  30.0654 6.04709 -38.251
LeftForeArm  -6.18507 -19.4609 -8.29379
LeftHand  0.417635 -4.27079 -4.74026
RightShoulder  10.6438 16.1667 47.3324
RightArm  12.5896 6.6682 17.7399
RightForeArm  13.4435 6.41218 15.5006
RightHand  0.291232 4.51925 3.1619
LeftUpLeg  -20.8158 11.9107 4.56262
LeftLeg  51.242 -3.6888 -4.48376
LeftFoot  -2.15893 0.762463 -9.31987
LeftToes  5.72949e-011 5.22586e-011 2.45399e-011
1022
root  30.3786 39.5218 -98.071 -0.5634 21.0667 0.327042
RightUpLeg  -4.55809 -5.60102 1.25162
RightLeg  17.7506 -10.5051 -2.23574
RightFoot  -12.8911 -0.0749535 0.912151
RightToes  -5.8209e-011 0 -3.6325e-017
Spine  8.83432 0.311396 8.82265
Spine1  -2.64646 1.32757 -1.36856
HEad  -15.3259 -4.04475 0.338755
LeftShoulder1  1.4615 -0.606781 -29.4851
LeftArm  30.4224 7.27405 -37.1012
LeftForeArm  -7.71874 -20.1721 -7.6732
LeftHand  0.371085 -3.5982 -4.54442
RightShoulder  10.9352 16.7886 47.1255
RightArm  14.8526 7.40618 18.1319
RightForeArm  10.9556 8.18999 14.9678
RightHand  0.286273 4.61885 3.02503
LeftUpLeg  -21.7767 13.6156 3.22517
LeftLeg  42.3956 -4.28774 -3.80772
LeftFoot  -2.58315 0.738303 -9.42455
LeftToes  5.72949e-011 5.22586e-011 2.45399e-011
1023
root  30.837 39.5225 -97.0484 -0.32019 20.4646 0.523972
RightUpLeg  -2.38872 -5.74887 0.748508
RightLeg  16.7914 -9.86414 -1.94079
RightFoot  -14.1965 -0.0578307 1.53682
RightToes  -5.8209e-011 0 -3.6325e-017
Spine  8.27218 0.588899 8.73839
Spine1  -2.5011 1.49575 -1.97114
HEad  -14.4264 -3.74044 -0.366092
LeftShoulder1  1.46916 -0.687611 -28.9737
LeftArm  28.7688 8.93325 -36.8027
LeftForeArm  -5.15827 -19.872 -7.79704
LeftHand  0.378644 -5.05916 -3.89992
RightShoulder  10.9549 16.9236 46.8908
RightArm  16.7304 8.34204 18.6598
RightForeArm  9.52779 9.52118 14.4489
RightHand  0.290373 4.59633 3.08091
LeftUpLeg  -22.9497 14.238 2.66117
LeftLeg  33.1335 -3.76014 -2.30062
LeftFoot  -2.52875 0.866819 -11.0276
LeftToes  5.72949e-011 5.22586e-011 2.45399e-011
1024
root  31.1642 39.7896 -96.1249 0.518417 19.7988 1.2695
RightUpLeg  0.511895 -5.27693 -0.0542942
RightLeg  12.675 -9.96654 -1.3306
RightFoot  -13.4442 -0.0535241 2.04588
RightToes  -5.8209e-011 0 -3.6325e-017
Spine  8.04923 0.857275 7.27145
Spine1  -2.54067 1.72844 -3.12769
HEad  -13.8747 -3.28297 -1.33437
LeftShoulder1  1.44713 -0.649838 -28.7571
LeftArm  27.1206 10.2986 -36.21
LeftForeArm  -3.44175 -18.895 -8.66041
LeftHand  0.396113 -5.48319 -3.90835
RightShoulder  11.0529 17.0861 46.9359
RightArm  18.0028 8.94256 18.8618
RightForeArm  8.881 10.4392 14.0206
RightHand  0.334459 4.62824 3.57882
LeftUpLeg  -22.2555 17.8147 0.957735
LeftLeg  19.2154 -5.38655 -1.76603
LeftFoot  -0.11388 1.081 -10.9668
LeftToes  5.72949e-011 5.22586e-011 2.45399e-011
1025
root  31.6953 39.8342 -95.1422 1.61716 19.0232 1.3858
RightUpLeg  2.24244 -5.32576 -0.697707
RightLeg  10.3385 -8.8341 -0.650105
RightFoot  -13.7759 -0.0406539 2.47895
RightToes  -5.8209e-011 0 -3.6325e-017
Spine  6.44101 1.04013 5.83457
Spine1  -1.66962 1.58357 -2.23391
HEad  -13.7961 -2.77633 -2.59352
LeftShoulder1  1.36756 -0.295389 -29.9296
LeftArm  27.3444 12.2611 -35.0411
LeftForeArm  -4.32766 -18.7771 -8.85584
LeftHand  0.377166 -5.29885 -3.78166
RightShoulder  11.258 17.909 45.9281
RightArm  19.4382 8.73412 19.3163
RightForeArm  8.0555 11.2315 13.6229
RightHand  0.349436 4.76779 3.69143
LeftUpLeg  -21.0501 11.0874 3.69076
LeftLeg  6.6225 3.19854 -2.96999
LeftFoot  0.545948 1.17158 -11.2586
LeftToes  5.72949e-011 5.22586e-011 2.45399e-011
1026
root  32.2829 39.7747 -94.1236 2.65038 18.0185 1.22636
RightUpLeg  3.33784 -5.30297 -1.10283
RightLeg  9.39736 -7.76925 -0.47193
RightFoot  -14.5619 -0.00149451 3.45659
RightToes  -5.8209e-011 0 -3.6325e-017
Spine  4.33396 1.03831 5.0349
Spine1  -0.178969 1.53399 -2.4856
HEad  -13.5677 -2.1856 -2.50811
LeftShoulder1  1.18543 0.190229 -29.6983
LeftArm  25.5687 14.0457 -34.6314
LeftForeArm  -2.63127 -17.7425 -9.77738
LeftHand  0.404207 -5.31429 -4.06805
RightShoulder  11.5696 18.1043 46.797
RightArm  19.6436 9.18386 19.1004
RightForeArm  8.70001 11.1194 13.697
RightHand  0.356636 4.66506 3.81877
LeftUpLeg  -20.7356 7.10338 5.07736
LeftLeg  -3.2897 10.5982 -4.00439
LeftFoot  1.45131 1.23539 -11.0734
LeftToes  5.72949e-011 5.22586e-011 2.45399e-011
1027
root  32.9557 39.5659 -93.0591 3.65749 17.2956 0.840576
RightUpLeg  3.8846 -5.44887 -1.43252
RightLeg  9.86081 -6.42364 -0.479493
RightFoot  -16.052 0.0630961 4.17768
RightToes  -5.8209e-011 0 -3.6325e-017
Spine  1.97798 1.01535 4.70737
Spine1  1.32944 1.43416 -2.56026
HEad  -13.2309 -1.32969 -2.55353
LeftShoulder1  1.06987 0.573735 -30.4411
LeftArm  26.2297 14.9939 -33.3522
LeftForeArm  -3.72383 -16.9169 -10.7154
LeftHand  0.412978 -4.64746 -4.48357
RightShoulder  11.6168 17.7194 47.8693
RightArm  20.1939 9.78111 18.675
RightForeArm  8.8304 10.4088 14.2394
RightHand  0.28838 4.74044 3.005
LeftUpLeg  -21.7471 6.20119 5.24087
LeftLeg  -7.54154 13.2114 -4.2617
LeftFoot  1.37866 1.38173 -12.4341
LeftToes  5.72949e-011 5.22586e-011 2.45399e-011
1028
root  33.7157 39.2824 -91.9414 4.53629 16.668 0.562729
RightUpLeg  4.16459 -5.57861 -1.94421
RightLeg  11.5279 -5.11959 -0.851721
RightFoot  -17.9632 0.226098 6.00985
RightToes  -5.8209e-011 0 -3.6325e-017
Spine  -0.470428 1.14832 4.4801
Spine1  3.02762 1.50407 -2.5984
HEad  -12.9534 -0.944497 -2.33489
LeftShoulder1  1.05492 0.684742 -31.3538
LeftArm  25.6031 15.1285 -31.9706
LeftForeArm  -2.58093 -15.3017 -12.1901
LeftHand  0.441571 -4.86593 -4.69702
RightShoulder  11.6237 17.2655 48.9633
RightArm  18.3652 9.88576 17.9087
RightForeArm  11.0095 8.82994 14.9725
RightHand  0.300018 4.71795 3.14654
LeftUpLeg  -24.3377 6.48693 4.91088
LeftLeg  -3.92805 13.7153 -4.06749
LeftFoot  1.03996 1.08336 -10.028
LeftToes  5.72949e-011 5.22586e-011 2.45399e-011
1029
root  34.5144 38.9925 -90.7888 5.20111 15.8592 0.421219
RightUpLeg  4.44059 -5.09997 -2.59161
RightLeg  13.8194 -4.17958 -1.44318
RightFoot  -19.5485 0.462622 8.28617
RightToes  -5.8209e-011 0 -3.6325e-017
Spine  -2.73716 1.47775 4.29775
Spine1  4.8253 1.87026 -2.84845
HEad  -12.7833 -0.711308 -2.02633
LeftShoulder1  1.09374 0.704535 -33.0038
LeftArm  26.4471 14.6851 -29.8474
LeftForeArm  -2.86297 -14.0846 -13.3387
LeftHand  0.485297 -4.67247 -5.30361
RightShoulder  11.5199 16.6418 50.0374
RightArm  15.1613 9.60842 16.9879
RightForeArm  14.2252 6.35208 15.8364
RightHand  0.287571 4.65705 3.02602
LeftUpLeg  -25.6389 5.94492 3.98118
LeftLeg  0.609767 15.9055 -2.76011
LeftFoot  2.49731 1.0225 -8.54036
LeftToes  5.72949e-011 5.22586e-011 2.45399e-011
